<svg xmlns="http://www.w3.org/2000/svg" width="560" height="360" viewBox="0 0 560 360" fill="none">
  <rect width="560" height="360" rx="16" fill="#F7F6F2"/>
  <rect x="1" y="1" width="558" height="358" rx="15" stroke="#D5D0C6"/>
  <rect x="24" y="24" width="512" height="48" rx="10" fill="#EFEDE6"/>
  <text x="40" y="54" font-family="Georgia, serif" font-size="14" fill="#141413">KARTA - Ride Outdoor</text>
  <text x="400" y="54" font-family="Courier, monospace" font-size="11" fill="#6A9B82">50 KM TARGET</text>
  <rect x="24" y="92" width="240" height="244" rx="12" fill="#FFFFFF" stroke="#D5D0C6"/>
  <text x="40" y="120" font-family="Helvetica, Arial, sans-serif" font-size="11" letter-spacing="1.5" fill="#6A9B82">SPORT</text>
  <rect x="40" y="132" width="72" height="32" rx="8" fill="#B85626"/>
  <text x="52" y="153" font-family="Helvetica, Arial, sans-serif" font-size="12" fill="#FFFAF6">Cycling</text>
  <text x="40" y="188" font-family="Helvetica, Arial, sans-serif" font-size="11" letter-spacing="1.5" fill="#6A9B82">DISTANCE</text>
  <rect x="40" y="200" width="48" height="28" rx="6" fill="#E8E5DD" stroke="#B85626"/>
  <text x="52" y="219" font-family="Courier, monospace" font-size="11" fill="#141413">50</text>
  <rect x="96" y="200" width="48" height="28" rx="6" fill="#EFEDE6" stroke="#D5D0C6"/>
  <text x="106" y="219" font-family="Courier, monospace" font-size="11" fill="#6F6C65">70</text>
  <rect x="40" y="252" width="208" height="68" rx="10" fill="#E8E5DD"/>
  <text x="56" y="278" font-family="Georgia, serif" font-size="14" fill="#141413">Loop ready</text>
  <text x="56" y="300" font-family="Courier, monospace" font-size="11" fill="#6F6C65">49.2 km | 3 segments</text>
  <rect x="280" y="92" width="256" height="244" rx="12" fill="#E8E5DD" stroke="#D5D0C6"/>
  <path d="M300 280 Q 340 140, 400 200 T 510 120" stroke="#B85626" stroke-width="4" fill="none" stroke-linecap="round"/>
  <circle cx="300" cy="280" r="6" fill="#B85626"/>
  <circle cx="510" cy="120" r="6" fill="#6A9B82"/>
  <rect x="300" y="108" width="120" height="28" rx="6" fill="#FFFFFF" opacity="0.9"/>
  <text x="312" y="127" font-family="Helvetica, Arial, sans-serif" font-size="11" fill="#6F6C65">Departure pin</text>
</svg>
